<svg width="25" height="25" viewBox="0 0 25 25" fill="none" xmlns="http://www.w3.org/2000/svg">
<path d="M20.7388 13.5818C20.5784 13.3993 20.49 13.1647 20.49 12.9218C20.49 12.6789 20.5784 12.4443 20.7388 12.2618L22.0188 10.8218C22.1598 10.6645 22.2474 10.4665 22.269 10.2563C22.2905 10.0461 22.2449 9.83452 22.1388 9.65183L20.1388 6.19183C20.0337 6.00935 19.8736 5.86471 19.6815 5.77852C19.4894 5.69233 19.2749 5.66899 19.0688 5.71183L17.1888 6.09183C16.9495 6.14126 16.7005 6.10142 16.4887 5.97983C16.2768 5.85824 16.1168 5.66331 16.0388 5.43183L15.4288 3.60183C15.3617 3.40321 15.2339 3.2307 15.0634 3.10867C14.8929 2.98665 14.6884 2.92129 14.4788 2.92183H10.4788C10.2607 2.91045 10.0449 2.97076 9.86433 3.09355C9.68376 3.21633 9.54834 3.39485 9.47876 3.60183L8.91876 5.43183C8.84076 5.66331 8.68074 5.85824 8.46888 5.97983C8.25702 6.10142 8.00798 6.14126 7.76876 6.09183L5.83876 5.71183C5.64331 5.68421 5.44406 5.71505 5.26611 5.80047C5.08816 5.88589 4.93946 6.02206 4.83876 6.19183L2.83876 9.65183C2.72992 9.83248 2.68099 10.0429 2.69895 10.2531C2.71691 10.4632 2.80085 10.6623 2.93876 10.8218L4.20876 12.2618C4.36908 12.4443 4.4575 12.6789 4.4575 12.9218C4.4575 13.1647 4.36908 13.3993 4.20876 13.5818L2.93876 15.0218C2.80085 15.1814 2.71691 15.3805 2.69895 15.5906C2.68099 15.8007 2.72992 16.0112 2.83876 16.1918L4.83876 19.6518C4.94386 19.8343 5.10388 19.979 5.29602 20.0651C5.48815 20.1513 5.70259 20.1747 5.90876 20.1318L7.78876 19.7518C8.02798 19.7024 8.27702 19.7422 8.48888 19.8638C8.70074 19.9854 8.86076 20.1803 8.93876 20.4118L9.54876 22.2418C9.61834 22.4488 9.75376 22.6273 9.93433 22.7501C10.1149 22.8729 10.3307 22.9332 10.5488 22.9218H14.5488C14.7584 22.9224 14.9629 22.857 15.1334 22.735C15.3039 22.613 15.4317 22.4405 15.4988 22.2418L16.1088 20.4118C16.1868 20.1803 16.3468 19.9854 16.5587 19.8638C16.7705 19.7422 17.0195 19.7024 17.2588 19.7518L19.1388 20.1318C19.3449 20.1747 19.5594 20.1513 19.7515 20.0651C19.9436 19.979 20.1037 19.8343 20.2088 19.6518L22.2088 16.1918C22.3149 16.0091 22.3605 15.7975 22.339 15.5873C22.3174 15.3771 22.2298 15.1792 22.0888 15.0218L20.7388 13.5818ZM19.2488 14.9218L20.0488 15.8218L18.7688 18.0418L17.5888 17.8018C16.8685 17.6546 16.1193 17.7769 15.4834 18.1456C14.8474 18.5143 14.3689 19.1037 14.1388 19.8018L13.7588 20.9218H11.1988L10.8388 19.7818C10.6086 19.0837 10.1301 18.4943 9.49417 18.1256C8.85819 17.757 8.10898 17.6346 7.38876 17.7818L6.20876 18.0218L4.90876 15.8118L5.70876 14.9118C6.20072 14.3618 6.4727 13.6498 6.4727 12.9118C6.4727 12.1739 6.20072 11.4619 5.70876 10.9118L4.90876 10.0118L6.18876 7.81183L7.36876 8.05183C8.08898 8.19905 8.83819 8.07671 9.47417 7.70803C10.1101 7.33935 10.5886 6.74999 10.8188 6.05183L11.1988 4.92183H13.7588L14.1388 6.06183C14.3689 6.75999 14.8474 7.34935 15.4834 7.71803C16.1193 8.08671 16.8685 8.20905 17.5888 8.06183L18.7688 7.82183L20.0488 10.0418L19.2488 10.9418C18.7623 11.4906 18.4937 12.1985 18.4937 12.9318C18.4937 13.6651 18.7623 14.3731 19.2488 14.9218ZM12.4788 8.92183C11.6876 8.92183 10.9143 9.15643 10.2565 9.59595C9.59869 10.0355 9.086 10.6602 8.78325 11.3911C8.48049 12.122 8.40128 12.9263 8.55562 13.7022C8.70996 14.4781 9.09093 15.1908 9.65034 15.7503C10.2097 16.3097 10.9225 16.6906 11.6984 16.845C12.4743 16.9993 13.2786 16.9201 14.0095 16.6173C14.7404 16.3146 15.3651 15.8019 15.8046 15.1441C16.2442 14.4863 16.4788 13.713 16.4788 12.9218C16.4788 11.861 16.0573 10.8435 15.3072 10.0934C14.557 9.34326 13.5396 8.92183 12.4788 8.92183ZM12.4788 14.9218C12.0832 14.9218 11.6965 14.8045 11.3676 14.5848C11.0387 14.365 10.7824 14.0526 10.631 13.6872C10.4796 13.3217 10.44 12.9196 10.5172 12.5317C10.5944 12.1437 10.7848 11.7873 11.0645 11.5076C11.3443 11.2279 11.7006 11.0374 12.0886 10.9603C12.4765 10.8831 12.8787 10.9227 13.2441 11.0741C13.6096 11.2254 13.9219 11.4818 14.1417 11.8107C14.3615 12.1396 14.4788 12.5263 14.4788 12.9218C14.4788 13.4523 14.268 13.961 13.893 14.336C13.5179 14.7111 13.0092 14.9218 12.4788 14.9218Z" fill="white"/>
</svg>
