<svg width="24" height="24" viewBox="0 0 24 24" fill="none" xmlns="http://www.w3.org/2000/svg">
<path d="M21.5 11.5C21.5 5.977 17.023 1.5 11.5 1.5C5.977 1.5 1.5 5.977 1.5 11.5C1.5 17.023 5.977 21.5 11.5 21.5" stroke="white" stroke-width="1.5" stroke-linecap="round" stroke-linejoin="round"/>
<path d="M12.5 1.55005C12.5 1.55005 15.5 5.50005 15.5 11.5M10.5 21.4501C10.5 21.4501 7.5 17.5 7.5 11.5C7.5 5.50005 10.5 1.55005 10.5 1.55005M2.13 15H11.5M2.13 8.00005H20.87M18.5 17V18.5H20" stroke="white" stroke-width="1.5" stroke-linecap="round" stroke-linejoin="round"/>
<path d="M18.5 22.5C19.5609 22.5 20.5783 22.0786 21.3284 21.3284C22.0786 20.5783 22.5 19.5609 22.5 18.5C22.5 17.4391 22.0786 16.4217 21.3284 15.6716C20.5783 14.9214 19.5609 14.5 18.5 14.5C17.4391 14.5 16.4217 14.9214 15.6716 15.6716C14.9214 16.4217 14.5 17.4391 14.5 18.5C14.5 19.5609 14.9214 20.5783 15.6716 21.3284C16.4217 22.0786 17.4391 22.5 18.5 22.5Z" stroke="white" stroke-width="1.5" stroke-linecap="round" stroke-linejoin="round"/>
</svg>
